<svg width="16" height="16" viewBox="0 0 16 16" fill="none" xmlns="http://www.w3.org/2000/svg">
<path d="M14.0667 8.33366L15 9.27366L10.6467 13.667L8.33333 11.3337L9.26667 10.3937L10.6467 11.7803L14.0667 8.33366ZM7.33333 2.66699C8.04058 2.66699 8.71885 2.94794 9.21895 3.44804C9.71905 3.94814 10 4.62641 10 5.33366C10 6.0409 9.71905 6.71918 9.21895 7.21928C8.71885 7.71937 8.04058 8.00033 7.33333 8.00033C6.62609 8.00033 5.94781 7.71937 5.44772 7.21928C4.94762 6.71918 4.66667 6.0409 4.66667 5.33366C4.66667 4.62641 4.94762 3.94814 5.44772 3.44804C5.94781 2.94794 6.62609 2.66699 7.33333 2.66699ZM7.33333 4.00033C6.97971 4.00033 6.64057 4.1408 6.39052 4.39085C6.14048 4.6409 6 4.98004 6 5.33366C6 5.68728 6.14048 6.02642 6.39052 6.27647C6.64057 6.52652 6.97971 6.66699 7.33333 6.66699C7.68696 6.66699 8.02609 6.52652 8.27614 6.27647C8.52619 6.02642 8.66667 5.68728 8.66667 5.33366C8.66667 4.98004 8.52619 4.6409 8.27614 4.39085C8.02609 4.1408 7.68696 4.00033 7.33333 4.00033ZM7.33333 8.66699C7.78667 8.66699 8.33333 8.72699 8.94 8.84033L7.82667 9.95366L7.33333 9.93366C5.35333 9.93366 3.26667 10.907 3.26667 11.3337V12.067H7.4L8.66667 13.3337H2V11.3337C2 9.56033 5.55333 8.66699 7.33333 8.66699Z" fill="#F08080"/>
</svg>