<svg width="16" height="16" viewBox="0 0 16 16" fill="none" xmlns="http://www.w3.org/2000/svg">
<path d="M9.99984 2.66699C9.29259 2.66699 8.61432 2.94794 8.11422 3.44804C7.61412 3.94814 7.33317 4.62641 7.33317 5.33366C7.33317 6.0409 7.61412 6.71918 8.11422 7.21928C8.61432 7.71937 9.29259 8.00033 9.99984 8.00033C10.7071 8.00033 11.3854 7.71937 11.8855 7.21928C12.3856 6.71918 12.6665 6.0409 12.6665 5.33366C12.6665 4.62641 12.3856 3.94814 11.8855 3.44804C11.3854 2.94794 10.7071 2.66699 9.99984 2.66699ZM9.99984 3.93366C10.1837 3.93366 10.3657 3.96987 10.5356 4.04023C10.7055 4.11058 10.8598 4.21371 10.9898 4.34371C11.1198 4.47371 11.2229 4.62805 11.2933 4.7979C11.3636 4.96776 11.3998 5.14981 11.3998 5.33366C11.3998 5.51751 11.3636 5.69956 11.2933 5.86942C11.2229 6.03927 11.1198 6.19361 10.9898 6.32361C10.8598 6.45361 10.7055 6.55673 10.5356 6.62709C10.3657 6.69745 10.1837 6.73366 9.99984 6.73366C9.81599 6.73366 9.63394 6.69745 9.46408 6.62709C9.29422 6.55673 9.13989 6.45361 9.00989 6.32361C8.87989 6.19361 8.77676 6.03927 8.70641 5.86942C8.63605 5.69956 8.59984 5.51751 8.59984 5.33366C8.59984 4.96236 8.74734 4.60626 9.00989 4.34371C9.27244 4.08116 9.62853 3.93366 9.99984 3.93366ZM2.6665 4.66699V6.66699H0.666504V8.00033H2.6665V10.0003H3.99984V8.00033H5.99984V6.66699H3.99984V4.66699H2.6665ZM9.99984 8.66699C8.21984 8.66699 4.6665 9.55366 4.6665 11.3337V13.3337H15.3332V11.3337C15.3332 9.55366 11.7798 8.66699 9.99984 8.66699ZM9.99984 9.93366C11.9798 9.93366 14.0665 10.907 14.0665 11.3337V12.067H5.93317V11.3337C5.93317 10.907 7.99984 9.93366 9.99984 9.93366Z" fill="white"/>
</svg>